<mxfile host="app.diagrams.net" modified="2023-06-29T13:43:28.585Z" agent="Mozilla/5.0 (Windows NT 10.0; Win64; x64) AppleWebKit/537.36 (KHTML, like Gecko) Chrome/114.0.0.0 Safari/537.36" version="21.5.1" etag="6TmRaXbEXyAKdFDnsymg" type="github">
  <diagram name="PÃ¡gina-1" id="87jTk4k9yysIQiC5hE1M">
    <mxGraphModel>
      <root>
        <mxCell id="0" />
        <mxCell id="1" parent="0" />
      </root>
    </mxGraphModel>
  </diagram>
</mxfile>
